<?xml version="1.0" standalone="no"?>
<svg xmlns="http://www.w3.org/2000/svg" width="512" height="512"><defs><clipPath id="clip-path-dot-color"><rect x="10" y="106" width="12" height="12" transform="rotate(0,16,112)"/><rect x="10" y="142" width="12" height="12" transform="rotate(0,16,148)"/><rect x="10" y="154" width="12" height="12" transform="rotate(0,16,160)"/><rect x="10" y="166" width="12" height="12" transform="rotate(0,16,172)"/><rect x="10" y="214" width="12" height="12" transform="rotate(0,16,220)"/><rect x="10" y="238" width="12" height="12" transform="rotate(0,16,244)"/><rect x="10" y="262" width="12" height="12" transform="rotate(0,16,268)"/><rect x="10" y="382" width="12" height="12" transform="rotate(0,16,388)"/><rect x="22" y="106" width="12" height="12" transform="rotate(0,28,112)"/><rect x="22" y="166" width="12" height="12" transform="rotate(0,28,172)"/><rect x="22" y="190" width="12" height="12" transform="rotate(0,28,196)"/><rect x="22" y="226" width="12" height="12" transform="rotate(0,28,232)"/><rect x="22" y="286" width="12" height="12" transform="rotate(0,28,292)"/><rect x="22" y="298" width="12" height="12" transform="rotate(0,28,304)"/><rect x="22" y="310" width="12" height="12" transform="rotate(0,28,316)"/><rect x="22" y="346" width="12" height="12" transform="rotate(0,28,352)"/><rect x="22" y="358" width="12" height="12" transform="rotate(0,28,364)"/><rect x="22" y="370" width="12" height="12" transform="rotate(0,28,376)"/><rect x="34" y="118" width="12" height="12" transform="rotate(0,40,124)"/><rect x="34" y="130" width="12" height="12" transform="rotate(0,40,136)"/><rect x="34" y="166" width="12" height="12" transform="rotate(0,40,172)"/><rect x="34" y="202" width="12" height="12" transform="rotate(0,40,208)"/><rect x="34" y="214" width="12" height="12" transform="rotate(0,40,220)"/><rect x="34" y="238" width="12" height="12" transform="rotate(0,40,244)"/><rect x="34" y="250" width="12" height="12" transform="rotate(0,40,256)"/><rect x="34" y="298" width="12" height="12" transform="rotate(0,40,304)"/><rect x="34" y="310" width="12" height="12" transform="rotate(0,40,316)"/><rect x="34" y="322" width="12" height="12" transform="rotate(0,40,328)"/><rect x="34" y="346" width="12" height="12" transform="rotate(0,40,352)"/><rect x="34" y="370" width="12" height="12" transform="rotate(0,40,376)"/><rect x="34" y="382" width="12" height="12" transform="rotate(0,40,388)"/><rect x="34" y="394" width="12" height="12" transform="rotate(0,40,400)"/><rect x="46" y="106" width="12" height="12" transform="rotate(0,52,112)"/><rect x="46" y="118" width="12" height="12" transform="rotate(0,52,124)"/><rect x="46" y="130" width="12" height="12" transform="rotate(0,52,136)"/><rect x="46" y="154" width="12" height="12" transform="rotate(0,52,160)"/><rect x="46" y="190" width="12" height="12" transform="rotate(0,52,196)"/><rect x="46" y="202" width="12" height="12" transform="rotate(0,52,208)"/><rect x="46" y="262" width="12" height="12" transform="rotate(0,52,268)"/><rect x="46" y="298" width="12" height="12" transform="rotate(0,52,304)"/><rect x="46" y="310" width="12" height="12" transform="rotate(0,52,316)"/><rect x="46" y="394" width="12" height="12" transform="rotate(0,52,400)"/><rect x="58" y="130" width="12" height="12" transform="rotate(0,64,136)"/><rect x="58" y="166" width="12" height="12" transform="rotate(0,64,172)"/><rect x="58" y="178" width="12" height="12" transform="rotate(0,64,184)"/><rect x="58" y="214" width="12" height="12" transform="rotate(0,64,220)"/><rect x="58" y="274" width="12" height="12" transform="rotate(0,64,280)"/><rect x="58" y="286" width="12" height="12" transform="rotate(0,64,292)"/><rect x="58" y="298" width="12" height="12" transform="rotate(0,64,304)"/><rect x="58" y="310" width="12" height="12" transform="rotate(0,64,316)"/><rect x="58" y="322" width="12" height="12" transform="rotate(0,64,328)"/><rect x="58" y="334" width="12" height="12" transform="rotate(0,64,340)"/><rect x="58" y="382" width="12" height="12" transform="rotate(0,64,388)"/><rect x="58" y="394" width="12" height="12" transform="rotate(0,64,400)"/><rect x="70" y="130" width="12" height="12" transform="rotate(0,76,136)"/><rect x="70" y="154" width="12" height="12" transform="rotate(0,76,160)"/><rect x="70" y="178" width="12" height="12" transform="rotate(0,76,184)"/><rect x="70" y="190" width="12" height="12" transform="rotate(0,76,196)"/><rect x="70" y="238" width="12" height="12" transform="rotate(0,76,244)"/><rect x="70" y="250" width="12" height="12" transform="rotate(0,76,256)"/><rect x="70" y="274" width="12" height="12" transform="rotate(0,76,280)"/><rect x="70" y="310" width="12" height="12" transform="rotate(0,76,316)"/><rect x="70" y="322" width="12" height="12" transform="rotate(0,76,328)"/><rect x="70" y="382" width="12" height="12" transform="rotate(0,76,388)"/><rect x="70" y="394" width="12" height="12" transform="rotate(0,76,400)"/><rect x="82" y="106" width="12" height="12" transform="rotate(0,88,112)"/><rect x="82" y="130" width="12" height="12" transform="rotate(0,88,136)"/><rect x="82" y="154" width="12" height="12" transform="rotate(0,88,160)"/><rect x="82" y="178" width="12" height="12" transform="rotate(0,88,184)"/><rect x="82" y="202" width="12" height="12" transform="rotate(0,88,208)"/><rect x="82" y="226" width="12" height="12" transform="rotate(0,88,232)"/><rect x="82" y="250" width="12" height="12" transform="rotate(0,88,256)"/><rect x="82" y="274" width="12" height="12" transform="rotate(0,88,280)"/><rect x="82" y="298" width="12" height="12" transform="rotate(0,88,304)"/><rect x="82" y="322" width="12" height="12" transform="rotate(0,88,328)"/><rect x="82" y="346" width="12" height="12" transform="rotate(0,88,352)"/><rect x="82" y="370" width="12" height="12" transform="rotate(0,88,376)"/><rect x="82" y="394" width="12" height="12" transform="rotate(0,88,400)"/><rect x="94" y="106" width="12" height="12" transform="rotate(0,100,112)"/><rect x="94" y="130" width="12" height="12" transform="rotate(0,100,136)"/><rect x="94" y="142" width="12" height="12" transform="rotate(0,100,148)"/><rect x="94" y="154" width="12" height="12" transform="rotate(0,100,160)"/><rect x="94" y="166" width="12" height="12" transform="rotate(0,100,172)"/><rect x="94" y="178" width="12" height="12" transform="rotate(0,100,184)"/><rect x="94" y="190" width="12" height="12" transform="rotate(0,100,196)"/><rect x="94" y="214" width="12" height="12" transform="rotate(0,100,220)"/><rect x="94" y="322" width="12" height="12" transform="rotate(0,100,328)"/><rect x="94" y="334" width="12" height="12" transform="rotate(0,100,340)"/><rect x="94" y="358" width="12" height="12" transform="rotate(0,100,364)"/><rect x="106" y="10" width="12" height="12" transform="rotate(0,112,16)"/><rect x="106" y="34" width="12" height="12" transform="rotate(0,112,40)"/><rect x="106" y="46" width="12" height="12" transform="rotate(0,112,52)"/><rect x="106" y="70" width="12" height="12" transform="rotate(0,112,76)"/><rect x="106" y="82" width="12" height="12" transform="rotate(0,112,88)"/><rect x="106" y="94" width="12" height="12" transform="rotate(0,112,100)"/><rect x="106" y="154" width="12" height="12" transform="rotate(0,112,160)"/><rect x="106" y="166" width="12" height="12" transform="rotate(0,112,172)"/><rect x="106" y="202" width="12" height="12" transform="rotate(0,112,208)"/><rect x="106" y="214" width="12" height="12" transform="rotate(0,112,220)"/><rect x="106" y="238" width="12" height="12" transform="rotate(0,112,244)"/><rect x="106" y="250" width="12" height="12" transform="rotate(0,112,256)"/><rect x="106" y="262" width="12" height="12" transform="rotate(0,112,268)"/><rect x="106" y="274" width="12" height="12" transform="rotate(0,112,280)"/><rect x="106" y="298" width="12" height="12" transform="rotate(0,112,304)"/><rect x="106" y="346" width="12" height="12" transform="rotate(0,112,352)"/><rect x="106" y="358" width="12" height="12" transform="rotate(0,112,364)"/><rect x="106" y="382" width="12" height="12" transform="rotate(0,112,388)"/><rect x="106" y="394" width="12" height="12" transform="rotate(0,112,400)"/><rect x="106" y="418" width="12" height="12" transform="rotate(0,112,424)"/><rect x="106" y="454" width="12" height="12" transform="rotate(0,112,460)"/><rect x="106" y="478" width="12" height="12" transform="rotate(0,112,484)"/><rect x="106" y="490" width="12" height="12" transform="rotate(0,112,496)"/><rect x="118" y="10" width="12" height="12" transform="rotate(0,124,16)"/><rect x="118" y="34" width="12" height="12" transform="rotate(0,124,40)"/><rect x="118" y="70" width="12" height="12" transform="rotate(0,124,76)"/><rect x="118" y="94" width="12" height="12" transform="rotate(0,124,100)"/><rect x="118" y="106" width="12" height="12" transform="rotate(0,124,112)"/><rect x="118" y="118" width="12" height="12" transform="rotate(0,124,124)"/><rect x="118" y="130" width="12" height="12" transform="rotate(0,124,136)"/><rect x="118" y="178" width="12" height="12" transform="rotate(0,124,184)"/><rect x="118" y="190" width="12" height="12" transform="rotate(0,124,196)"/><rect x="118" y="202" width="12" height="12" transform="rotate(0,124,208)"/><rect x="118" y="238" width="12" height="12" transform="rotate(0,124,244)"/><rect x="118" y="262" width="12" height="12" transform="rotate(0,124,268)"/><rect x="118" y="274" width="12" height="12" transform="rotate(0,124,280)"/><rect x="118" y="286" width="12" height="12" transform="rotate(0,124,292)"/><rect x="118" y="298" width="12" height="12" transform="rotate(0,124,304)"/><rect x="118" y="322" width="12" height="12" transform="rotate(0,124,328)"/><rect x="118" y="358" width="12" height="12" transform="rotate(0,124,364)"/><rect x="118" y="382" width="12" height="12" transform="rotate(0,124,388)"/><rect x="118" y="406" width="12" height="12" transform="rotate(0,124,412)"/><rect x="118" y="418" width="12" height="12" transform="rotate(0,124,424)"/><rect x="118" y="442" width="12" height="12" transform="rotate(0,124,448)"/><rect x="118" y="454" width="12" height="12" transform="rotate(0,124,460)"/><rect x="118" y="478" width="12" height="12" transform="rotate(0,124,484)"/><rect x="130" y="22" width="12" height="12" transform="rotate(0,136,28)"/><rect x="130" y="34" width="12" height="12" transform="rotate(0,136,40)"/><rect x="130" y="46" width="12" height="12" transform="rotate(0,136,52)"/><rect x="130" y="70" width="12" height="12" transform="rotate(0,136,76)"/><rect x="130" y="82" width="12" height="12" transform="rotate(0,136,88)"/><rect x="130" y="130" width="12" height="12" transform="rotate(0,136,136)"/><rect x="130" y="178" width="12" height="12" transform="rotate(0,136,184)"/><rect x="130" y="190" width="12" height="12" transform="rotate(0,136,196)"/><rect x="130" y="202" width="12" height="12" transform="rotate(0,136,208)"/><rect x="130" y="214" width="12" height="12" transform="rotate(0,136,220)"/><rect x="130" y="226" width="12" height="12" transform="rotate(0,136,232)"/><rect x="130" y="250" width="12" height="12" transform="rotate(0,136,256)"/><rect x="130" y="262" width="12" height="12" transform="rotate(0,136,268)"/><rect x="130" y="286" width="12" height="12" transform="rotate(0,136,292)"/><rect x="130" y="358" width="12" height="12" transform="rotate(0,136,364)"/><rect x="130" y="394" width="12" height="12" transform="rotate(0,136,400)"/><rect x="130" y="430" width="12" height="12" transform="rotate(0,136,436)"/><rect x="130" y="454" width="12" height="12" transform="rotate(0,136,460)"/><rect x="130" y="478" width="12" height="12" transform="rotate(0,136,484)"/><rect x="142" y="46" width="12" height="12" transform="rotate(0,148,52)"/><rect x="142" y="94" width="12" height="12" transform="rotate(0,148,100)"/><rect x="142" y="142" width="12" height="12" transform="rotate(0,148,148)"/><rect x="142" y="166" width="12" height="12" transform="rotate(0,148,172)"/><rect x="142" y="178" width="12" height="12" transform="rotate(0,148,184)"/><rect x="142" y="202" width="12" height="12" transform="rotate(0,148,208)"/><rect x="142" y="226" width="12" height="12" transform="rotate(0,148,232)"/><rect x="142" y="286" width="12" height="12" transform="rotate(0,148,292)"/><rect x="142" y="298" width="12" height="12" transform="rotate(0,148,304)"/><rect x="142" y="310" width="12" height="12" transform="rotate(0,148,316)"/><rect x="142" y="322" width="12" height="12" transform="rotate(0,148,328)"/><rect x="142" y="334" width="12" height="12" transform="rotate(0,148,340)"/><rect x="142" y="346" width="12" height="12" transform="rotate(0,148,352)"/><rect x="142" y="382" width="12" height="12" transform="rotate(0,148,388)"/><rect x="142" y="394" width="12" height="12" transform="rotate(0,148,400)"/><rect x="142" y="406" width="12" height="12" transform="rotate(0,148,412)"/><rect x="142" y="430" width="12" height="12" transform="rotate(0,148,436)"/><rect x="142" y="478" width="12" height="12" transform="rotate(0,148,484)"/><rect x="142" y="490" width="12" height="12" transform="rotate(0,148,496)"/><rect x="154" y="34" width="12" height="12" transform="rotate(0,160,40)"/><rect x="154" y="58" width="12" height="12" transform="rotate(0,160,64)"/><rect x="154" y="70" width="12" height="12" transform="rotate(0,160,76)"/><rect x="154" y="82" width="12" height="12" transform="rotate(0,160,88)"/><rect x="154" y="94" width="12" height="12" transform="rotate(0,160,100)"/><rect x="154" y="118" width="12" height="12" transform="rotate(0,160,124)"/><rect x="154" y="130" width="12" height="12" transform="rotate(0,160,136)"/><rect x="154" y="142" width="12" height="12" transform="rotate(0,160,148)"/><rect x="154" y="154" width="12" height="12" transform="rotate(0,160,160)"/><rect x="154" y="202" width="12" height="12" transform="rotate(0,160,208)"/><rect x="154" y="250" width="12" height="12" transform="rotate(0,160,256)"/><rect x="154" y="286" width="12" height="12" transform="rotate(0,160,292)"/><rect x="154" y="298" width="12" height="12" transform="rotate(0,160,304)"/><rect x="154" y="322" width="12" height="12" transform="rotate(0,160,328)"/><rect x="154" y="334" width="12" height="12" transform="rotate(0,160,340)"/><rect x="154" y="346" width="12" height="12" transform="rotate(0,160,352)"/><rect x="154" y="358" width="12" height="12" transform="rotate(0,160,364)"/><rect x="154" y="370" width="12" height="12" transform="rotate(0,160,376)"/><rect x="154" y="406" width="12" height="12" transform="rotate(0,160,412)"/><rect x="154" y="466" width="12" height="12" transform="rotate(0,160,472)"/><rect x="166" y="34" width="12" height="12" transform="rotate(0,172,40)"/><rect x="166" y="70" width="12" height="12" transform="rotate(0,172,76)"/><rect x="166" y="94" width="12" height="12" transform="rotate(0,172,100)"/><rect x="166" y="106" width="12" height="12" transform="rotate(0,172,112)"/><rect x="166" y="154" width="12" height="12" transform="rotate(0,172,160)"/><rect x="166" y="166" width="12" height="12" transform="rotate(0,172,172)"/><rect x="166" y="190" width="12" height="12" transform="rotate(0,172,196)"/><rect x="166" y="202" width="12" height="12" transform="rotate(0,172,208)"/><rect x="166" y="250" width="12" height="12" transform="rotate(0,172,256)"/><rect x="166" y="274" width="12" height="12" transform="rotate(0,172,280)"/><rect x="166" y="286" width="12" height="12" transform="rotate(0,172,292)"/><rect x="166" y="298" width="12" height="12" transform="rotate(0,172,304)"/><rect x="166" y="322" width="12" height="12" transform="rotate(0,172,328)"/><rect x="166" y="334" width="12" height="12" transform="rotate(0,172,340)"/><rect x="166" y="370" width="12" height="12" transform="rotate(0,172,376)"/><rect x="166" y="382" width="12" height="12" transform="rotate(0,172,388)"/><rect x="166" y="394" width="12" height="12" transform="rotate(0,172,400)"/><rect x="166" y="418" width="12" height="12" transform="rotate(0,172,424)"/><rect x="166" y="430" width="12" height="12" transform="rotate(0,172,436)"/><rect x="166" y="454" width="12" height="12" transform="rotate(0,172,460)"/><rect x="178" y="10" width="12" height="12" transform="rotate(0,184,16)"/><rect x="178" y="34" width="12" height="12" transform="rotate(0,184,40)"/><rect x="178" y="46" width="12" height="12" transform="rotate(0,184,52)"/><rect x="178" y="58" width="12" height="12" transform="rotate(0,184,64)"/><rect x="178" y="82" width="12" height="12" transform="rotate(0,184,88)"/><rect x="178" y="130" width="12" height="12" transform="rotate(0,184,136)"/><rect x="178" y="142" width="12" height="12" transform="rotate(0,184,148)"/><rect x="178" y="178" width="12" height="12" transform="rotate(0,184,184)"/><rect x="178" y="190" width="12" height="12" transform="rotate(0,184,196)"/><rect x="178" y="202" width="12" height="12" transform="rotate(0,184,208)"/><rect x="178" y="238" width="12" height="12" transform="rotate(0,184,244)"/><rect x="178" y="250" width="12" height="12" transform="rotate(0,184,256)"/><rect x="178" y="262" width="12" height="12" transform="rotate(0,184,268)"/><rect x="178" y="274" width="12" height="12" transform="rotate(0,184,280)"/><rect x="178" y="286" width="12" height="12" transform="rotate(0,184,292)"/><rect x="178" y="310" width="12" height="12" transform="rotate(0,184,316)"/><rect x="178" y="322" width="12" height="12" transform="rotate(0,184,328)"/><rect x="178" y="382" width="12" height="12" transform="rotate(0,184,388)"/><rect x="178" y="394" width="12" height="12" transform="rotate(0,184,400)"/><rect x="178" y="418" width="12" height="12" transform="rotate(0,184,424)"/><rect x="178" y="430" width="12" height="12" transform="rotate(0,184,436)"/><rect x="178" y="442" width="12" height="12" transform="rotate(0,184,448)"/><rect x="178" y="478" width="12" height="12" transform="rotate(0,184,484)"/><rect x="178" y="490" width="12" height="12" transform="rotate(0,184,496)"/><rect x="190" y="10" width="12" height="12" transform="rotate(0,196,16)"/><rect x="190" y="34" width="12" height="12" transform="rotate(0,196,40)"/><rect x="190" y="58" width="12" height="12" transform="rotate(0,196,64)"/><rect x="190" y="70" width="12" height="12" transform="rotate(0,196,76)"/><rect x="190" y="94" width="12" height="12" transform="rotate(0,196,100)"/><rect x="190" y="118" width="12" height="12" transform="rotate(0,196,124)"/><rect x="190" y="130" width="12" height="12" transform="rotate(0,196,136)"/><rect x="190" y="166" width="12" height="12" transform="rotate(0,196,172)"/><rect x="190" y="178" width="12" height="12" transform="rotate(0,196,184)"/><rect x="190" y="190" width="12" height="12" transform="rotate(0,196,196)"/><rect x="190" y="202" width="12" height="12" transform="rotate(0,196,208)"/><rect x="190" y="262" width="12" height="12" transform="rotate(0,196,268)"/><rect x="190" y="286" width="12" height="12" transform="rotate(0,196,292)"/><rect x="190" y="322" width="12" height="12" transform="rotate(0,196,328)"/><rect x="190" y="334" width="12" height="12" transform="rotate(0,196,340)"/><rect x="190" y="370" width="12" height="12" transform="rotate(0,196,376)"/><rect x="190" y="418" width="12" height="12" transform="rotate(0,196,424)"/><rect x="190" y="442" width="12" height="12" transform="rotate(0,196,448)"/><rect x="202" y="22" width="12" height="12" transform="rotate(0,208,28)"/><rect x="202" y="46" width="12" height="12" transform="rotate(0,208,52)"/><rect x="202" y="82" width="12" height="12" transform="rotate(0,208,88)"/><rect x="202" y="106" width="12" height="12" transform="rotate(0,208,112)"/><rect x="202" y="118" width="12" height="12" transform="rotate(0,208,124)"/><rect x="202" y="130" width="12" height="12" transform="rotate(0,208,136)"/><rect x="202" y="166" width="12" height="12" transform="rotate(0,208,172)"/><rect x="202" y="178" width="12" height="12" transform="rotate(0,208,184)"/><rect x="202" y="202" width="12" height="12" transform="rotate(0,208,208)"/><rect x="202" y="214" width="12" height="12" transform="rotate(0,208,220)"/><rect x="202" y="226" width="12" height="12" transform="rotate(0,208,232)"/><rect x="202" y="250" width="12" height="12" transform="rotate(0,208,256)"/><rect x="202" y="262" width="12" height="12" transform="rotate(0,208,268)"/><rect x="202" y="310" width="12" height="12" transform="rotate(0,208,316)"/><rect x="202" y="322" width="12" height="12" transform="rotate(0,208,328)"/><rect x="202" y="346" width="12" height="12" transform="rotate(0,208,352)"/><rect x="202" y="358" width="12" height="12" transform="rotate(0,208,364)"/><rect x="202" y="370" width="12" height="12" transform="rotate(0,208,376)"/><rect x="202" y="394" width="12" height="12" transform="rotate(0,208,400)"/><rect x="202" y="442" width="12" height="12" transform="rotate(0,208,448)"/><rect x="202" y="490" width="12" height="12" transform="rotate(0,208,496)"/><rect x="214" y="10" width="12" height="12" transform="rotate(0,220,16)"/><rect x="214" y="34" width="12" height="12" transform="rotate(0,220,40)"/><rect x="214" y="46" width="12" height="12" transform="rotate(0,220,52)"/><rect x="214" y="58" width="12" height="12" transform="rotate(0,220,64)"/><rect x="214" y="130" width="12" height="12" transform="rotate(0,220,136)"/><rect x="214" y="154" width="12" height="12" transform="rotate(0,220,160)"/><rect x="214" y="178" width="12" height="12" transform="rotate(0,220,184)"/><rect x="214" y="262" width="12" height="12" transform="rotate(0,220,268)"/><rect x="214" y="274" width="12" height="12" transform="rotate(0,220,280)"/><rect x="214" y="298" width="12" height="12" transform="rotate(0,220,304)"/><rect x="214" y="310" width="12" height="12" transform="rotate(0,220,316)"/><rect x="214" y="322" width="12" height="12" transform="rotate(0,220,328)"/><rect x="214" y="334" width="12" height="12" transform="rotate(0,220,340)"/><rect x="214" y="346" width="12" height="12" transform="rotate(0,220,352)"/><rect x="214" y="406" width="12" height="12" transform="rotate(0,220,412)"/><rect x="214" y="454" width="12" height="12" transform="rotate(0,220,460)"/><rect x="214" y="478" width="12" height="12" transform="rotate(0,220,484)"/><rect x="226" y="22" width="12" height="12" transform="rotate(0,232,28)"/><rect x="226" y="34" width="12" height="12" transform="rotate(0,232,40)"/><rect x="226" y="46" width="12" height="12" transform="rotate(0,232,52)"/><rect x="226" y="82" width="12" height="12" transform="rotate(0,232,88)"/><rect x="226" y="94" width="12" height="12" transform="rotate(0,232,100)"/><rect x="226" y="106" width="12" height="12" transform="rotate(0,232,112)"/><rect x="226" y="130" width="12" height="12" transform="rotate(0,232,136)"/><rect x="226" y="154" width="12" height="12" transform="rotate(0,232,160)"/><rect x="226" y="226" width="12" height="12" transform="rotate(0,232,232)"/><rect x="226" y="274" width="12" height="12" transform="rotate(0,232,280)"/><rect x="226" y="322" width="12" height="12" transform="rotate(0,232,328)"/><rect x="226" y="334" width="12" height="12" transform="rotate(0,232,340)"/><rect x="226" y="346" width="12" height="12" transform="rotate(0,232,352)"/><rect x="226" y="454" width="12" height="12" transform="rotate(0,232,460)"/><rect x="226" y="478" width="12" height="12" transform="rotate(0,232,484)"/><rect x="238" y="34" width="12" height="12" transform="rotate(0,244,40)"/><rect x="238" y="118" width="12" height="12" transform="rotate(0,244,124)"/><rect x="238" y="154" width="12" height="12" transform="rotate(0,244,160)"/><rect x="238" y="166" width="12" height="12" transform="rotate(0,244,172)"/><rect x="238" y="202" width="12" height="12" transform="rotate(0,244,208)"/><rect x="238" y="214" width="12" height="12" transform="rotate(0,244,220)"/><rect x="238" y="226" width="12" height="12" transform="rotate(0,244,232)"/><rect x="238" y="250" width="12" height="12" transform="rotate(0,244,256)"/><rect x="238" y="262" width="12" height="12" transform="rotate(0,244,268)"/><rect x="238" y="286" width="12" height="12" transform="rotate(0,244,292)"/><rect x="238" y="298" width="12" height="12" transform="rotate(0,244,304)"/><rect x="238" y="358" width="12" height="12" transform="rotate(0,244,364)"/><rect x="238" y="370" width="12" height="12" transform="rotate(0,244,376)"/><rect x="238" y="382" width="12" height="12" transform="rotate(0,244,388)"/><rect x="238" y="394" width="12" height="12" transform="rotate(0,244,400)"/><rect x="238" y="406" width="12" height="12" transform="rotate(0,244,412)"/><rect x="238" y="430" width="12" height="12" transform="rotate(0,244,436)"/><rect x="238" y="442" width="12" height="12" transform="rotate(0,244,448)"/><rect x="238" y="466" width="12" height="12" transform="rotate(0,244,472)"/><rect x="238" y="478" width="12" height="12" transform="rotate(0,244,484)"/><rect x="250" y="10" width="12" height="12" transform="rotate(0,256,16)"/><rect x="250" y="34" width="12" height="12" transform="rotate(0,256,40)"/><rect x="250" y="46" width="12" height="12" transform="rotate(0,256,52)"/><rect x="250" y="58" width="12" height="12" transform="rotate(0,256,64)"/><rect x="250" y="82" width="12" height="12" transform="rotate(0,256,88)"/><rect x="250" y="94" width="12" height="12" transform="rotate(0,256,100)"/><rect x="250" y="106" width="12" height="12" transform="rotate(0,256,112)"/><rect x="250" y="130" width="12" height="12" transform="rotate(0,256,136)"/><rect x="250" y="142" width="12" height="12" transform="rotate(0,256,148)"/><rect x="250" y="190" width="12" height="12" transform="rotate(0,256,196)"/><rect x="250" y="238" width="12" height="12" transform="rotate(0,256,244)"/><rect x="250" y="334" width="12" height="12" transform="rotate(0,256,340)"/><rect x="250" y="346" width="12" height="12" transform="rotate(0,256,352)"/><rect x="250" y="370" width="12" height="12" transform="rotate(0,256,376)"/><rect x="250" y="382" width="12" height="12" transform="rotate(0,256,388)"/><rect x="250" y="406" width="12" height="12" transform="rotate(0,256,412)"/><rect x="250" y="418" width="12" height="12" transform="rotate(0,256,424)"/><rect x="250" y="430" width="12" height="12" transform="rotate(0,256,436)"/><rect x="250" y="442" width="12" height="12" transform="rotate(0,256,448)"/><rect x="250" y="454" width="12" height="12" transform="rotate(0,256,460)"/><rect x="250" y="466" width="12" height="12" transform="rotate(0,256,472)"/><rect x="250" y="490" width="12" height="12" transform="rotate(0,256,496)"/><rect x="262" y="10" width="12" height="12" transform="rotate(0,268,16)"/><rect x="262" y="34" width="12" height="12" transform="rotate(0,268,40)"/><rect x="262" y="46" width="12" height="12" transform="rotate(0,268,52)"/><rect x="262" y="58" width="12" height="12" transform="rotate(0,268,64)"/><rect x="262" y="70" width="12" height="12" transform="rotate(0,268,76)"/><rect x="262" y="94" width="12" height="12" transform="rotate(0,268,100)"/><rect x="262" y="130" width="12" height="12" transform="rotate(0,268,136)"/><rect x="262" y="142" width="12" height="12" transform="rotate(0,268,148)"/><rect x="262" y="166" width="12" height="12" transform="rotate(0,268,172)"/><rect x="262" y="214" width="12" height="12" transform="rotate(0,268,220)"/><rect x="262" y="238" width="12" height="12" transform="rotate(0,268,244)"/><rect x="262" y="322" width="12" height="12" transform="rotate(0,268,328)"/><rect x="262" y="334" width="12" height="12" transform="rotate(0,268,340)"/><rect x="262" y="346" width="12" height="12" transform="rotate(0,268,352)"/><rect x="262" y="370" width="12" height="12" transform="rotate(0,268,376)"/><rect x="262" y="382" width="12" height="12" transform="rotate(0,268,388)"/><rect x="262" y="406" width="12" height="12" transform="rotate(0,268,412)"/><rect x="262" y="442" width="12" height="12" transform="rotate(0,268,448)"/><rect x="262" y="478" width="12" height="12" transform="rotate(0,268,484)"/><rect x="262" y="490" width="12" height="12" transform="rotate(0,268,496)"/><rect x="274" y="82" width="12" height="12" transform="rotate(0,280,88)"/><rect x="274" y="130" width="12" height="12" transform="rotate(0,280,136)"/><rect x="274" y="154" width="12" height="12" transform="rotate(0,280,160)"/><rect x="274" y="214" width="12" height="12" transform="rotate(0,280,220)"/><rect x="274" y="286" width="12" height="12" transform="rotate(0,280,292)"/><rect x="274" y="298" width="12" height="12" transform="rotate(0,280,304)"/><rect x="274" y="322" width="12" height="12" transform="rotate(0,280,328)"/><rect x="274" y="346" width="12" height="12" transform="rotate(0,280,352)"/><rect x="274" y="358" width="12" height="12" transform="rotate(0,280,364)"/><rect x="274" y="370" width="12" height="12" transform="rotate(0,280,376)"/><rect x="274" y="394" width="12" height="12" transform="rotate(0,280,400)"/><rect x="274" y="406" width="12" height="12" transform="rotate(0,280,412)"/><rect x="274" y="430" width="12" height="12" transform="rotate(0,280,436)"/><rect x="274" y="454" width="12" height="12" transform="rotate(0,280,460)"/><rect x="274" y="478" width="12" height="12" transform="rotate(0,280,484)"/><rect x="286" y="10" width="12" height="12" transform="rotate(0,292,16)"/><rect x="286" y="22" width="12" height="12" transform="rotate(0,292,28)"/><rect x="286" y="34" width="12" height="12" transform="rotate(0,292,40)"/><rect x="286" y="46" width="12" height="12" transform="rotate(0,292,52)"/><rect x="286" y="58" width="12" height="12" transform="rotate(0,292,64)"/><rect x="286" y="94" width="12" height="12" transform="rotate(0,292,100)"/><rect x="286" y="106" width="12" height="12" transform="rotate(0,292,112)"/><rect x="286" y="118" width="12" height="12" transform="rotate(0,292,124)"/><rect x="286" y="130" width="12" height="12" transform="rotate(0,292,136)"/><rect x="286" y="142" width="12" height="12" transform="rotate(0,292,148)"/><rect x="286" y="166" width="12" height="12" transform="rotate(0,292,172)"/><rect x="286" y="202" width="12" height="12" transform="rotate(0,292,208)"/><rect x="286" y="238" width="12" height="12" transform="rotate(0,292,244)"/><rect x="286" y="274" width="12" height="12" transform="rotate(0,292,280)"/><rect x="286" y="298" width="12" height="12" transform="rotate(0,292,304)"/><rect x="286" y="310" width="12" height="12" transform="rotate(0,292,316)"/><rect x="286" y="322" width="12" height="12" transform="rotate(0,292,328)"/><rect x="286" y="382" width="12" height="12" transform="rotate(0,292,388)"/><rect x="286" y="406" width="12" height="12" transform="rotate(0,292,412)"/><rect x="286" y="418" width="12" height="12" transform="rotate(0,292,424)"/><rect x="286" y="442" width="12" height="12" transform="rotate(0,292,448)"/><rect x="286" y="454" width="12" height="12" transform="rotate(0,292,460)"/><rect x="286" y="478" width="12" height="12" transform="rotate(0,292,484)"/><rect x="286" y="490" width="12" height="12" transform="rotate(0,292,496)"/><rect x="298" y="10" width="12" height="12" transform="rotate(0,304,16)"/><rect x="298" y="22" width="12" height="12" transform="rotate(0,304,28)"/><rect x="298" y="34" width="12" height="12" transform="rotate(0,304,40)"/><rect x="298" y="46" width="12" height="12" transform="rotate(0,304,52)"/><rect x="298" y="82" width="12" height="12" transform="rotate(0,304,88)"/><rect x="298" y="154" width="12" height="12" transform="rotate(0,304,160)"/><rect x="298" y="166" width="12" height="12" transform="rotate(0,304,172)"/><rect x="298" y="178" width="12" height="12" transform="rotate(0,304,184)"/><rect x="298" y="214" width="12" height="12" transform="rotate(0,304,220)"/><rect x="298" y="226" width="12" height="12" transform="rotate(0,304,232)"/><rect x="298" y="250" width="12" height="12" transform="rotate(0,304,256)"/><rect x="298" y="298" width="12" height="12" transform="rotate(0,304,304)"/><rect x="298" y="310" width="12" height="12" transform="rotate(0,304,316)"/><rect x="298" y="334" width="12" height="12" transform="rotate(0,304,340)"/><rect x="298" y="346" width="12" height="12" transform="rotate(0,304,352)"/><rect x="298" y="358" width="12" height="12" transform="rotate(0,304,364)"/><rect x="298" y="370" width="12" height="12" transform="rotate(0,304,376)"/><rect x="298" y="394" width="12" height="12" transform="rotate(0,304,400)"/><rect x="298" y="430" width="12" height="12" transform="rotate(0,304,436)"/><rect x="298" y="466" width="12" height="12" transform="rotate(0,304,472)"/><rect x="298" y="478" width="12" height="12" transform="rotate(0,304,484)"/><rect x="310" y="22" width="12" height="12" transform="rotate(0,316,28)"/><rect x="310" y="46" width="12" height="12" transform="rotate(0,316,52)"/><rect x="310" y="58" width="12" height="12" transform="rotate(0,316,64)"/><rect x="310" y="70" width="12" height="12" transform="rotate(0,316,76)"/><rect x="310" y="94" width="12" height="12" transform="rotate(0,316,100)"/><rect x="310" y="118" width="12" height="12" transform="rotate(0,316,124)"/><rect x="310" y="166" width="12" height="12" transform="rotate(0,316,172)"/><rect x="310" y="190" width="12" height="12" transform="rotate(0,316,196)"/><rect x="310" y="202" width="12" height="12" transform="rotate(0,316,208)"/><rect x="310" y="214" width="12" height="12" transform="rotate(0,316,220)"/><rect x="310" y="226" width="12" height="12" transform="rotate(0,316,232)"/><rect x="310" y="238" width="12" height="12" transform="rotate(0,316,244)"/><rect x="310" y="250" width="12" height="12" transform="rotate(0,316,256)"/><rect x="310" y="334" width="12" height="12" transform="rotate(0,316,340)"/><rect x="310" y="358" width="12" height="12" transform="rotate(0,316,364)"/><rect x="310" y="370" width="12" height="12" transform="rotate(0,316,376)"/><rect x="310" y="382" width="12" height="12" transform="rotate(0,316,388)"/><rect x="310" y="394" width="12" height="12" transform="rotate(0,316,400)"/><rect x="310" y="430" width="12" height="12" transform="rotate(0,316,436)"/><rect x="310" y="454" width="12" height="12" transform="rotate(0,316,460)"/><rect x="310" y="466" width="12" height="12" transform="rotate(0,316,472)"/><rect x="322" y="22" width="12" height="12" transform="rotate(0,328,28)"/><rect x="322" y="46" width="12" height="12" transform="rotate(0,328,52)"/><rect x="322" y="58" width="12" height="12" transform="rotate(0,328,64)"/><rect x="322" y="70" width="12" height="12" transform="rotate(0,328,76)"/><rect x="322" y="82" width="12" height="12" transform="rotate(0,328,88)"/><rect x="322" y="94" width="12" height="12" transform="rotate(0,328,100)"/><rect x="322" y="118" width="12" height="12" transform="rotate(0,328,124)"/><rect x="322" y="130" width="12" height="12" transform="rotate(0,328,136)"/><rect x="322" y="142" width="12" height="12" transform="rotate(0,328,148)"/><rect x="322" y="154" width="12" height="12" transform="rotate(0,328,160)"/><rect x="322" y="178" width="12" height="12" transform="rotate(0,328,184)"/><rect x="322" y="190" width="12" height="12" transform="rotate(0,328,196)"/><rect x="322" y="214" width="12" height="12" transform="rotate(0,328,220)"/><rect x="322" y="238" width="12" height="12" transform="rotate(0,328,244)"/><rect x="322" y="262" width="12" height="12" transform="rotate(0,328,268)"/><rect x="322" y="274" width="12" height="12" transform="rotate(0,328,280)"/><rect x="322" y="298" width="12" height="12" transform="rotate(0,328,304)"/><rect x="322" y="310" width="12" height="12" transform="rotate(0,328,316)"/><rect x="322" y="346" width="12" height="12" transform="rotate(0,328,352)"/><rect x="322" y="370" width="12" height="12" transform="rotate(0,328,376)"/><rect x="322" y="382" width="12" height="12" transform="rotate(0,328,388)"/><rect x="322" y="406" width="12" height="12" transform="rotate(0,328,412)"/><rect x="322" y="418" width="12" height="12" transform="rotate(0,328,424)"/><rect x="322" y="442" width="12" height="12" transform="rotate(0,328,448)"/><rect x="322" y="478" width="12" height="12" transform="rotate(0,328,484)"/><rect x="322" y="490" width="12" height="12" transform="rotate(0,328,496)"/><rect x="334" y="34" width="12" height="12" transform="rotate(0,340,40)"/><rect x="334" y="58" width="12" height="12" transform="rotate(0,340,64)"/><rect x="334" y="70" width="12" height="12" transform="rotate(0,340,76)"/><rect x="334" y="94" width="12" height="12" transform="rotate(0,340,100)"/><rect x="334" y="130" width="12" height="12" transform="rotate(0,340,136)"/><rect x="334" y="142" width="12" height="12" transform="rotate(0,340,148)"/><rect x="334" y="178" width="12" height="12" transform="rotate(0,340,184)"/><rect x="334" y="190" width="12" height="12" transform="rotate(0,340,196)"/><rect x="334" y="250" width="12" height="12" transform="rotate(0,340,256)"/><rect x="334" y="262" width="12" height="12" transform="rotate(0,340,268)"/><rect x="334" y="274" width="12" height="12" transform="rotate(0,340,280)"/><rect x="334" y="286" width="12" height="12" transform="rotate(0,340,292)"/><rect x="334" y="322" width="12" height="12" transform="rotate(0,340,328)"/><rect x="334" y="334" width="12" height="12" transform="rotate(0,340,340)"/><rect x="334" y="370" width="12" height="12" transform="rotate(0,340,376)"/><rect x="334" y="382" width="12" height="12" transform="rotate(0,340,388)"/><rect x="334" y="394" width="12" height="12" transform="rotate(0,340,400)"/><rect x="334" y="442" width="12" height="12" transform="rotate(0,340,448)"/><rect x="334" y="454" width="12" height="12" transform="rotate(0,340,460)"/><rect x="346" y="10" width="12" height="12" transform="rotate(0,352,16)"/><rect x="346" y="22" width="12" height="12" transform="rotate(0,352,28)"/><rect x="346" y="58" width="12" height="12" transform="rotate(0,352,64)"/><rect x="346" y="70" width="12" height="12" transform="rotate(0,352,76)"/><rect x="346" y="82" width="12" height="12" transform="rotate(0,352,88)"/><rect x="346" y="106" width="12" height="12" transform="rotate(0,352,112)"/><rect x="346" y="130" width="12" height="12" transform="rotate(0,352,136)"/><rect x="346" y="166" width="12" height="12" transform="rotate(0,352,172)"/><rect x="346" y="178" width="12" height="12" transform="rotate(0,352,184)"/><rect x="346" y="250" width="12" height="12" transform="rotate(0,352,256)"/><rect x="346" y="262" width="12" height="12" transform="rotate(0,352,268)"/><rect x="346" y="286" width="12" height="12" transform="rotate(0,352,292)"/><rect x="346" y="310" width="12" height="12" transform="rotate(0,352,316)"/><rect x="346" y="322" width="12" height="12" transform="rotate(0,352,328)"/><rect x="346" y="334" width="12" height="12" transform="rotate(0,352,340)"/><rect x="346" y="382" width="12" height="12" transform="rotate(0,352,388)"/><rect x="346" y="430" width="12" height="12" transform="rotate(0,352,436)"/><rect x="346" y="478" width="12" height="12" transform="rotate(0,352,484)"/><rect x="358" y="22" width="12" height="12" transform="rotate(0,364,28)"/><rect x="358" y="34" width="12" height="12" transform="rotate(0,364,40)"/><rect x="358" y="46" width="12" height="12" transform="rotate(0,364,52)"/><rect x="358" y="106" width="12" height="12" transform="rotate(0,364,112)"/><rect x="358" y="118" width="12" height="12" transform="rotate(0,364,124)"/><rect x="358" y="130" width="12" height="12" transform="rotate(0,364,136)"/><rect x="358" y="166" width="12" height="12" transform="rotate(0,364,172)"/><rect x="358" y="178" width="12" height="12" transform="rotate(0,364,184)"/><rect x="358" y="238" width="12" height="12" transform="rotate(0,364,244)"/><rect x="358" y="250" width="12" height="12" transform="rotate(0,364,256)"/><rect x="358" y="274" width="12" height="12" transform="rotate(0,364,280)"/><rect x="358" y="310" width="12" height="12" transform="rotate(0,364,316)"/><rect x="358" y="322" width="12" height="12" transform="rotate(0,364,328)"/><rect x="358" y="406" width="12" height="12" transform="rotate(0,364,412)"/><rect x="358" y="430" width="12" height="12" transform="rotate(0,364,436)"/><rect x="358" y="478" width="12" height="12" transform="rotate(0,364,484)"/><rect x="370" y="10" width="12" height="12" transform="rotate(0,376,16)"/><rect x="370" y="58" width="12" height="12" transform="rotate(0,376,64)"/><rect x="370" y="70" width="12" height="12" transform="rotate(0,376,76)"/><rect x="370" y="82" width="12" height="12" transform="rotate(0,376,88)"/><rect x="370" y="106" width="12" height="12" transform="rotate(0,376,112)"/><rect x="370" y="118" width="12" height="12" transform="rotate(0,376,124)"/><rect x="370" y="130" width="12" height="12" transform="rotate(0,376,136)"/><rect x="370" y="142" width="12" height="12" transform="rotate(0,376,148)"/><rect x="370" y="178" width="12" height="12" transform="rotate(0,376,184)"/><rect x="370" y="190" width="12" height="12" transform="rotate(0,376,196)"/><rect x="370" y="202" width="12" height="12" transform="rotate(0,376,208)"/><rect x="370" y="214" width="12" height="12" transform="rotate(0,376,220)"/><rect x="370" y="226" width="12" height="12" transform="rotate(0,376,232)"/><rect x="370" y="238" width="12" height="12" transform="rotate(0,376,244)"/><rect x="370" y="262" width="12" height="12" transform="rotate(0,376,268)"/><rect x="370" y="274" width="12" height="12" transform="rotate(0,376,280)"/><rect x="370" y="298" width="12" height="12" transform="rotate(0,376,304)"/><rect x="370" y="310" width="12" height="12" transform="rotate(0,376,316)"/><rect x="370" y="334" width="12" height="12" transform="rotate(0,376,340)"/><rect x="370" y="346" width="12" height="12" transform="rotate(0,376,352)"/><rect x="370" y="358" width="12" height="12" transform="rotate(0,376,364)"/><rect x="370" y="430" width="12" height="12" transform="rotate(0,376,436)"/><rect x="370" y="442" width="12" height="12" transform="rotate(0,376,448)"/><rect x="370" y="454" width="12" height="12" transform="rotate(0,376,460)"/><rect x="370" y="478" width="12" height="12" transform="rotate(0,376,484)"/><rect x="382" y="58" width="12" height="12" transform="rotate(0,388,64)"/><rect x="382" y="106" width="12" height="12" transform="rotate(0,388,112)"/><rect x="382" y="130" width="12" height="12" transform="rotate(0,388,136)"/><rect x="382" y="154" width="12" height="12" transform="rotate(0,388,160)"/><rect x="382" y="166" width="12" height="12" transform="rotate(0,388,172)"/><rect x="382" y="190" width="12" height="12" transform="rotate(0,388,196)"/><rect x="382" y="202" width="12" height="12" transform="rotate(0,388,208)"/><rect x="382" y="214" width="12" height="12" transform="rotate(0,388,220)"/><rect x="382" y="226" width="12" height="12" transform="rotate(0,388,232)"/><rect x="382" y="238" width="12" height="12" transform="rotate(0,388,244)"/><rect x="382" y="274" width="12" height="12" transform="rotate(0,388,280)"/><rect x="382" y="286" width="12" height="12" transform="rotate(0,388,292)"/><rect x="382" y="322" width="12" height="12" transform="rotate(0,388,328)"/><rect x="382" y="346" width="12" height="12" transform="rotate(0,388,352)"/><rect x="382" y="358" width="12" height="12" transform="rotate(0,388,364)"/><rect x="382" y="394" width="12" height="12" transform="rotate(0,388,400)"/><rect x="382" y="406" width="12" height="12" transform="rotate(0,388,412)"/><rect x="382" y="454" width="12" height="12" transform="rotate(0,388,460)"/><rect x="382" y="466" width="12" height="12" transform="rotate(0,388,472)"/><rect x="382" y="478" width="12" height="12" transform="rotate(0,388,484)"/><rect x="394" y="22" width="12" height="12" transform="rotate(0,400,28)"/><rect x="394" y="70" width="12" height="12" transform="rotate(0,400,76)"/><rect x="394" y="82" width="12" height="12" transform="rotate(0,400,88)"/><rect x="394" y="94" width="12" height="12" transform="rotate(0,400,100)"/><rect x="394" y="130" width="12" height="12" transform="rotate(0,400,136)"/><rect x="394" y="142" width="12" height="12" transform="rotate(0,400,148)"/><rect x="394" y="154" width="12" height="12" transform="rotate(0,400,160)"/><rect x="394" y="190" width="12" height="12" transform="rotate(0,400,196)"/><rect x="394" y="214" width="12" height="12" transform="rotate(0,400,220)"/><rect x="394" y="250" width="12" height="12" transform="rotate(0,400,256)"/><rect x="394" y="358" width="12" height="12" transform="rotate(0,400,364)"/><rect x="394" y="394" width="12" height="12" transform="rotate(0,400,400)"/><rect x="394" y="406" width="12" height="12" transform="rotate(0,400,412)"/><rect x="394" y="418" width="12" height="12" transform="rotate(0,400,424)"/><rect x="394" y="430" width="12" height="12" transform="rotate(0,400,436)"/><rect x="394" y="442" width="12" height="12" transform="rotate(0,400,448)"/><rect x="394" y="454" width="12" height="12" transform="rotate(0,400,460)"/><rect x="394" y="478" width="12" height="12" transform="rotate(0,400,484)"/><rect x="394" y="490" width="12" height="12" transform="rotate(0,400,496)"/><rect x="406" y="106" width="12" height="12" transform="rotate(0,412,112)"/><rect x="406" y="118" width="12" height="12" transform="rotate(0,412,124)"/><rect x="406" y="178" width="12" height="12" transform="rotate(0,412,184)"/><rect x="406" y="214" width="12" height="12" transform="rotate(0,412,220)"/><rect x="406" y="226" width="12" height="12" transform="rotate(0,412,232)"/><rect x="406" y="238" width="12" height="12" transform="rotate(0,412,244)"/><rect x="406" y="262" width="12" height="12" transform="rotate(0,412,268)"/><rect x="406" y="286" width="12" height="12" transform="rotate(0,412,292)"/><rect x="406" y="298" width="12" height="12" transform="rotate(0,412,304)"/><rect x="406" y="310" width="12" height="12" transform="rotate(0,412,316)"/><rect x="406" y="322" width="12" height="12" transform="rotate(0,412,328)"/><rect x="406" y="370" width="12" height="12" transform="rotate(0,412,376)"/><rect x="406" y="394" width="12" height="12" transform="rotate(0,412,400)"/><rect x="406" y="442" width="12" height="12" transform="rotate(0,412,448)"/><rect x="406" y="454" width="12" height="12" transform="rotate(0,412,460)"/><rect x="406" y="490" width="12" height="12" transform="rotate(0,412,496)"/><rect x="418" y="106" width="12" height="12" transform="rotate(0,424,112)"/><rect x="418" y="130" width="12" height="12" transform="rotate(0,424,136)"/><rect x="418" y="142" width="12" height="12" transform="rotate(0,424,148)"/><rect x="418" y="154" width="12" height="12" transform="rotate(0,424,160)"/><rect x="418" y="202" width="12" height="12" transform="rotate(0,424,208)"/><rect x="418" y="226" width="12" height="12" transform="rotate(0,424,232)"/><rect x="418" y="250" width="12" height="12" transform="rotate(0,424,256)"/><rect x="418" y="286" width="12" height="12" transform="rotate(0,424,292)"/><rect x="418" y="322" width="12" height="12" transform="rotate(0,424,328)"/><rect x="418" y="346" width="12" height="12" transform="rotate(0,424,352)"/><rect x="418" y="394" width="12" height="12" transform="rotate(0,424,400)"/><rect x="418" y="418" width="12" height="12" transform="rotate(0,424,424)"/><rect x="418" y="442" width="12" height="12" transform="rotate(0,424,448)"/><rect x="418" y="454" width="12" height="12" transform="rotate(0,424,460)"/><rect x="418" y="466" width="12" height="12" transform="rotate(0,424,472)"/><rect x="418" y="478" width="12" height="12" transform="rotate(0,424,484)"/><rect x="430" y="106" width="12" height="12" transform="rotate(0,436,112)"/><rect x="430" y="130" width="12" height="12" transform="rotate(0,436,136)"/><rect x="430" y="154" width="12" height="12" transform="rotate(0,436,160)"/><rect x="430" y="190" width="12" height="12" transform="rotate(0,436,196)"/><rect x="430" y="202" width="12" height="12" transform="rotate(0,436,208)"/><rect x="430" y="214" width="12" height="12" transform="rotate(0,436,220)"/><rect x="430" y="310" width="12" height="12" transform="rotate(0,436,316)"/><rect x="430" y="370" width="12" height="12" transform="rotate(0,436,376)"/><rect x="430" y="394" width="12" height="12" transform="rotate(0,436,400)"/><rect x="430" y="442" width="12" height="12" transform="rotate(0,436,448)"/><rect x="430" y="478" width="12" height="12" transform="rotate(0,436,484)"/><rect x="442" y="118" width="12" height="12" transform="rotate(0,448,124)"/><rect x="442" y="166" width="12" height="12" transform="rotate(0,448,172)"/><rect x="442" y="202" width="12" height="12" transform="rotate(0,448,208)"/><rect x="442" y="250" width="12" height="12" transform="rotate(0,448,256)"/><rect x="442" y="262" width="12" height="12" transform="rotate(0,448,268)"/><rect x="442" y="298" width="12" height="12" transform="rotate(0,448,304)"/><rect x="442" y="310" width="12" height="12" transform="rotate(0,448,316)"/><rect x="442" y="334" width="12" height="12" transform="rotate(0,448,340)"/><rect x="442" y="358" width="12" height="12" transform="rotate(0,448,364)"/><rect x="442" y="370" width="12" height="12" transform="rotate(0,448,376)"/><rect x="442" y="394" width="12" height="12" transform="rotate(0,448,400)"/><rect x="442" y="406" width="12" height="12" transform="rotate(0,448,412)"/><rect x="442" y="418" width="12" height="12" transform="rotate(0,448,424)"/><rect x="442" y="430" width="12" height="12" transform="rotate(0,448,436)"/><rect x="442" y="442" width="12" height="12" transform="rotate(0,448,448)"/><rect x="442" y="490" width="12" height="12" transform="rotate(0,448,496)"/><rect x="454" y="106" width="12" height="12" transform="rotate(0,460,112)"/><rect x="454" y="118" width="12" height="12" transform="rotate(0,460,124)"/><rect x="454" y="130" width="12" height="12" transform="rotate(0,460,136)"/><rect x="454" y="142" width="12" height="12" transform="rotate(0,460,148)"/><rect x="454" y="154" width="12" height="12" transform="rotate(0,460,160)"/><rect x="454" y="190" width="12" height="12" transform="rotate(0,460,196)"/><rect x="454" y="238" width="12" height="12" transform="rotate(0,460,244)"/><rect x="454" y="250" width="12" height="12" transform="rotate(0,460,256)"/><rect x="454" y="262" width="12" height="12" transform="rotate(0,460,268)"/><rect x="454" y="274" width="12" height="12" transform="rotate(0,460,280)"/><rect x="454" y="346" width="12" height="12" transform="rotate(0,460,352)"/><rect x="454" y="358" width="12" height="12" transform="rotate(0,460,364)"/><rect x="454" y="382" width="12" height="12" transform="rotate(0,460,388)"/><rect x="454" y="394" width="12" height="12" transform="rotate(0,460,400)"/><rect x="454" y="442" width="12" height="12" transform="rotate(0,460,448)"/><rect x="454" y="454" width="12" height="12" transform="rotate(0,460,460)"/><rect x="454" y="466" width="12" height="12" transform="rotate(0,460,472)"/><rect x="454" y="490" width="12" height="12" transform="rotate(0,460,496)"/><rect x="466" y="106" width="12" height="12" transform="rotate(0,472,112)"/><rect x="466" y="130" width="12" height="12" transform="rotate(0,472,136)"/><rect x="466" y="166" width="12" height="12" transform="rotate(0,472,172)"/><rect x="466" y="190" width="12" height="12" transform="rotate(0,472,196)"/><rect x="466" y="226" width="12" height="12" transform="rotate(0,472,232)"/><rect x="466" y="238" width="12" height="12" transform="rotate(0,472,244)"/><rect x="466" y="262" width="12" height="12" transform="rotate(0,472,268)"/><rect x="466" y="298" width="12" height="12" transform="rotate(0,472,304)"/><rect x="466" y="370" width="12" height="12" transform="rotate(0,472,376)"/><rect x="466" y="478" width="12" height="12" transform="rotate(0,472,484)"/><rect x="466" y="490" width="12" height="12" transform="rotate(0,472,496)"/><rect x="478" y="118" width="12" height="12" transform="rotate(0,484,124)"/><rect x="478" y="142" width="12" height="12" transform="rotate(0,484,148)"/><rect x="478" y="154" width="12" height="12" transform="rotate(0,484,160)"/><rect x="478" y="190" width="12" height="12" transform="rotate(0,484,196)"/><rect x="478" y="202" width="12" height="12" transform="rotate(0,484,208)"/><rect x="478" y="226" width="12" height="12" transform="rotate(0,484,232)"/><rect x="478" y="238" width="12" height="12" transform="rotate(0,484,244)"/><rect x="478" y="250" width="12" height="12" transform="rotate(0,484,256)"/><rect x="478" y="262" width="12" height="12" transform="rotate(0,484,268)"/><rect x="478" y="286" width="12" height="12" transform="rotate(0,484,292)"/><rect x="478" y="298" width="12" height="12" transform="rotate(0,484,304)"/><rect x="478" y="334" width="12" height="12" transform="rotate(0,484,340)"/><rect x="478" y="346" width="12" height="12" transform="rotate(0,484,352)"/><rect x="478" y="382" width="12" height="12" transform="rotate(0,484,388)"/><rect x="478" y="394" width="12" height="12" transform="rotate(0,484,400)"/><rect x="478" y="406" width="12" height="12" transform="rotate(0,484,412)"/><rect x="478" y="430" width="12" height="12" transform="rotate(0,484,436)"/><rect x="478" y="478" width="12" height="12" transform="rotate(0,484,484)"/><rect x="490" y="106" width="12" height="12" transform="rotate(0,496,112)"/><rect x="490" y="118" width="12" height="12" transform="rotate(0,496,124)"/><rect x="490" y="154" width="12" height="12" transform="rotate(0,496,160)"/><rect x="490" y="238" width="12" height="12" transform="rotate(0,496,244)"/><rect x="490" y="262" width="12" height="12" transform="rotate(0,496,268)"/><rect x="490" y="286" width="12" height="12" transform="rotate(0,496,292)"/><rect x="490" y="298" width="12" height="12" transform="rotate(0,496,304)"/><rect x="490" y="310" width="12" height="12" transform="rotate(0,496,316)"/><rect x="490" y="322" width="12" height="12" transform="rotate(0,496,328)"/><rect x="490" y="346" width="12" height="12" transform="rotate(0,496,352)"/><rect x="490" y="394" width="12" height="12" transform="rotate(0,496,400)"/><rect x="490" y="406" width="12" height="12" transform="rotate(0,496,412)"/><rect x="490" y="442" width="12" height="12" transform="rotate(0,496,448)"/><rect x="490" y="454" width="12" height="12" transform="rotate(0,496,460)"/><rect x="490" y="478" width="12" height="12" transform="rotate(0,496,484)"/></clipPath><clipPath id="clip-path-corners-square-color-0-0"><path clip-rule="evenodd" d="M 52 10a 42 42 0 1 0 0.1 0zm 0 12a 30 30 0 1 1 -0.1 0Z" transform="rotate(0,52,52)"/></clipPath><clipPath id="clip-path-corners-dot-color-0-0"><rect x="34" y="34" width="12" height="12" transform="rotate(0,40,40)"/><rect x="34" y="46" width="12" height="12" transform="rotate(0,40,52)"/><rect x="34" y="58" width="12" height="12" transform="rotate(0,40,64)"/><rect x="46" y="34" width="12" height="12" transform="rotate(0,52,40)"/><rect x="46" y="46" width="12" height="12" transform="rotate(0,52,52)"/><rect x="46" y="58" width="12" height="12" transform="rotate(0,52,64)"/><rect x="58" y="34" width="12" height="12" transform="rotate(0,64,40)"/><rect x="58" y="46" width="12" height="12" transform="rotate(0,64,52)"/><rect x="58" y="58" width="12" height="12" transform="rotate(0,64,64)"/></clipPath><clipPath id="clip-path-corners-square-color-1-0"><path clip-rule="evenodd" d="M 460 10a 42 42 0 1 0 0.1 0zm 0 12a 30 30 0 1 1 -0.1 0Z" transform="rotate(90,460,52)"/></clipPath><clipPath id="clip-path-corners-dot-color-1-0"><rect x="442" y="34" width="12" height="12" transform="rotate(0,448,40)"/><rect x="442" y="46" width="12" height="12" transform="rotate(0,448,52)"/><rect x="442" y="58" width="12" height="12" transform="rotate(0,448,64)"/><rect x="454" y="34" width="12" height="12" transform="rotate(0,460,40)"/><rect x="454" y="46" width="12" height="12" transform="rotate(0,460,52)"/><rect x="454" y="58" width="12" height="12" transform="rotate(0,460,64)"/><rect x="466" y="34" width="12" height="12" transform="rotate(0,472,40)"/><rect x="466" y="46" width="12" height="12" transform="rotate(0,472,52)"/><rect x="466" y="58" width="12" height="12" transform="rotate(0,472,64)"/></clipPath><clipPath id="clip-path-corners-square-color-0-1"><path clip-rule="evenodd" d="M 52 418a 42 42 0 1 0 0.1 0zm 0 12a 30 30 0 1 1 -0.1 0Z" transform="rotate(-90,52,460)"/></clipPath><clipPath id="clip-path-corners-dot-color-0-1"><rect x="34" y="442" width="12" height="12" transform="rotate(0,40,448)"/><rect x="34" y="454" width="12" height="12" transform="rotate(0,40,460)"/><rect x="34" y="466" width="12" height="12" transform="rotate(0,40,472)"/><rect x="46" y="442" width="12" height="12" transform="rotate(0,52,448)"/><rect x="46" y="454" width="12" height="12" transform="rotate(0,52,460)"/><rect x="46" y="466" width="12" height="12" transform="rotate(0,52,472)"/><rect x="58" y="442" width="12" height="12" transform="rotate(0,64,448)"/><rect x="58" y="454" width="12" height="12" transform="rotate(0,64,460)"/><rect x="58" y="466" width="12" height="12" transform="rotate(0,64,472)"/></clipPath></defs><rect x="0" y="0" height="512" width="512" clip-path="url('#clip-path-background-color')" fill="#ffffff"/><rect x="0" y="0" height="512" width="512" clip-path="url('#clip-path-dot-color')" fill="#111827"/><rect x="10" y="10" height="84" width="84" clip-path="url('#clip-path-corners-square-color-0-0')" fill="#111827"/><rect x="34" y="34" height="36" width="36" clip-path="url('#clip-path-corners-dot-color-0-0')" fill="#111827"/><rect x="418" y="10" height="84" width="84" clip-path="url('#clip-path-corners-square-color-1-0')" fill="#111827"/><rect x="442" y="34" height="36" width="36" clip-path="url('#clip-path-corners-dot-color-1-0')" fill="#111827"/><rect x="10" y="418" height="84" width="84" clip-path="url('#clip-path-corners-square-color-0-1')" fill="#111827"/><rect x="34" y="442" height="36" width="36" clip-path="url('#clip-path-corners-dot-color-0-1')" fill="#111827"/></svg>